# xmcd CD database file
#
# Track frame offsets:
#	150
#	17599
#	52334
#	72261
#	89608
#	112243
#	131565
#	162548
#	192013
#	208841
#	231887
#	263372
#	289814
#
# Disc length: 4190 seconds
#
# Revision: 0
# Processed by: cddbd v1.5.1PL0 Copyright (c) Steve Scherf et al.
# Submitted via: CDex 1.51
#
DISCID=c5105c0d
DTITLE=Aphex Twin - 26 Mixes For Cash [CD1)
DYEAR=1900
DGENRE=New Age
TTITLE0=Time To Find Me - Seefeel [AFX Fast Mix]
TTITLE1=Raising The Titanic - Gavin Bryars [Big Drum Mix]  
TTITLE2=Journey - Gentle People [Aphex Twin Care Mix]
TTITLE3=Triachus - Kinesthesia [Aphex Twin Mix] 
TTITLE4=Heroes - Philip Glass [Aphex Twin Remix] 
TTITLE5=In The Glitter Part 2 - Buck Tick [Aphex Twin Mix]  
TTITLE6=Zeros and Ones - Jesus Jones [Aphex Twin Reconstruction Mix #2]
TTITLE7=Ziggy - Nav Katze [Aphex Twin Mix #1]
TTITLE8=Your Head My Voice - Saint Etienne [Voix Revirement]  
TTITLE9=Change - Nav Katze [Aphex Twin Mix #2]
TTITLE10=Une Femme N'Est Pas Un Homme - The Beatniks [Aphex Twin Mix]
TTITLE11=The Beauty Of Being Numb Section B - Nine Inch Nails [Created by Aphex Twin] 
TTITLE12=Let My Fish Loose - Nobukazu Takemura [Aphex Twin Remix]
EXTD=
EXTT0=
EXTT1=
EXTT2=
EXTT3=
EXTT4=
EXTT5=
EXTT6=
EXTT7=
EXTT8=
EXTT9=
EXTT10=
EXTT11=
EXTT12=
PLAYORDER=
